<svg width="128" height="128" viewBox="0 0 128 128" fill="none" xmlns="http://www.w3.org/2000/svg">
  <!-- Background circle with gradient -->
  <circle cx="64" cy="64" r="64" fill="url(#gradient1)"/>
  
  <!-- Gradient definition -->
  <defs>
    <linearGradient id="gradient1" x1="0%" y1="0%" x2="100%" y2="100%">
      <stop offset="0%" style="stop-color:#00ff88;stop-opacity:1" />
      <stop offset="50%" style="stop-color:#0099ff;stop-opacity:1" />
      <stop offset="100%" style="stop-color:#00ff88;stop-opacity:1" />
    </linearGradient>
    <linearGradient id="gradient2" x1="0%" y1="0%" x2="100%" y2="100%">
      <stop offset="0%" style="stop-color:#0a0e27;stop-opacity:1" />
      <stop offset="100%" style="stop-color:#050816;stop-opacity:1" />
    </linearGradient>
  </defs>
  
  <!-- Inner circle -->
  <circle cx="64" cy="64" r="58" fill="url(#gradient2)"/>
  
  <!-- AY Text -->
  <text x="64" y="80" font-family="'Orbitron', monospace" font-size="48" font-weight="900" fill="url(#gradient1)" text-anchor="middle">AY</text>
  
  <!-- Decorative elements - corner accents -->
  <path d="M 20 20 L 35 20 L 35 22 L 22 22 L 22 35 L 20 35 Z" fill="#00ff88" opacity="0.6"/>
  <path d="M 108 20 L 93 20 L 93 22 L 106 22 L 106 35 L 108 35 Z" fill="#00ff88" opacity="0.6"/>
  <path d="M 20 108 L 35 108 L 35 106 L 22 106 L 22 93 L 20 93 Z" fill="#0099ff" opacity="0.6"/>
  <path d="M 108 108 L 93 108 L 93 106 L 106 106 L 106 93 L 108 93 Z" fill="#0099ff" opacity="0.6"/>
</svg>
